<svg width="1000" height="1000" viewBox="0 0 1000 1000" fill="none" xmlns="http://www.w3.org/2000/svg">
<g filter="url(#filter0_d_1036_2)">
<path d="M294.962 323.273L115.412 608.573C83.2675 659.65 122.777 725.598 182.977 721.35C205.984 719.727 226.905 707.427 239.511 688.112L407.588 430.581C411.814 424.106 420.427 422.173 427.014 426.221C433.85 430.422 435.881 439.429 431.511 446.157L253.638 719.997C214.314 780.537 257.762 860.567 329.952 860.567H728.188C782.095 860.567 812.213 798.36 778.78 756.073C766.548 740.603 747.91 731.579 728.188 731.579H373.636C366.765 731.579 361.195 726.009 361.195 719.139C361.195 712.268 366.765 706.699 373.636 706.699H706.57H819.171C859.58 706.699 887.226 665.905 872.253 628.372L864.206 608.203C862.338 603.52 859.982 599.047 857.178 594.858L538.176 118.272C514.648 83.1214 463.089 82.7635 439.075 117.584L424.686 137.097C402.309 167.444 400.964 208.447 421.304 240.195L640.552 582.409C644.309 588.273 641.592 596.107 635.011 598.385C630.312 600.013 625.11 598.208 622.427 594.021L448.607 322.659C412.638 266.505 330.481 266.834 294.962 323.273Z" fill="white"/>
<path d="M442.697 120.254C442.725 120.216 442.753 120.178 442.78 120.138C464.989 87.9339 512.676 88.2648 534.436 120.775L853.439 597.361C856.067 601.288 858.275 605.481 860.027 609.871L868.073 630.04C881.867 664.617 856.398 702.199 819.171 702.199H706.57H373.636C364.28 702.199 356.695 709.783 356.695 719.139C356.695 728.495 364.28 736.079 373.636 736.079H728.188C746.534 736.079 763.872 744.473 775.25 758.864C806.35 798.2 778.334 856.067 728.188 856.067H329.952C261.332 856.067 220.033 779.994 257.412 722.448L435.285 448.609C441.033 439.759 438.361 427.912 429.37 422.387C420.706 417.063 409.377 419.605 403.819 428.121L235.743 685.653C223.906 703.788 204.263 715.337 182.66 716.861C126.136 720.849 89.0387 658.928 119.221 610.97L298.77 325.67C332.533 272.021 410.627 271.709 444.818 325.086L618.638 596.448C622.442 602.386 629.819 604.945 636.484 602.638C645.816 599.407 649.669 588.297 644.341 579.982L425.093 237.767C405.759 207.589 407.037 168.614 428.308 139.768L442.697 120.254Z" stroke="#191B1D" stroke-width="9" stroke-linejoin="round"/>
</g>
<defs>
<filter id="filter0_d_1036_2" x="99.9395" y="89.6875" width="780.438" height="776.879" filterUnits="userSpaceOnUse" color-interpolation-filters="sRGB">
<feFlood flood-opacity="0" result="BackgroundImageFix"/>
<feColorMatrix in="SourceAlpha" type="matrix" values="0 0 0 0 0 0 0 0 0 0 0 0 0 0 0 0 0 0 127 0" result="hardAlpha"/>
<feOffset dy="2"/>
<feGaussianBlur stdDeviation="2"/>
<feComposite in2="hardAlpha" operator="out"/>
<feColorMatrix type="matrix" values="0 0 0 0 0 0 0 0 0 0 0 0 0 0 0 0 0 0 0.5 0"/>
<feBlend mode="normal" in2="BackgroundImageFix" result="effect1_dropShadow_1036_2"/>
<feBlend mode="normal" in="SourceGraphic" in2="effect1_dropShadow_1036_2" result="shape"/>
</filter>
</defs>
</svg>
