<svg width="70" height="70" viewBox="0 0 70 70" fill="none" xmlns="http://www.w3.org/2000/svg">
<g clip-path="url(#clip0_1036_2)">
<g filter="url(#filter0_d_1036_2)">
<path d="M20.8662 22.4865L5.93438 48.5647C3.63424 52.5818 7.15895 57.4312 11.6899 56.4833C13.1619 56.1753 14.4372 55.2638 15.205 53.9707L27.9135 32.5681C28.5307 31.5287 30.0345 31.5261 30.6553 32.5634C30.9556 33.0654 30.9574 33.6914 30.6598 34.1949L14.8498 60.9474C12.4861 64.9471 15.3693 70 20.0153 70H53.4976C58.0085 70 60.6254 64.8939 57.9913 61.232C56.9512 59.7861 55.2788 58.929 53.4976 58.929H26.4979C25.7457 58.929 25.0781 58.4472 24.841 57.7334C24.4656 56.6032 25.307 55.4372 26.4979 55.4372H58.1857C62.8619 55.4372 65.7407 50.3251 63.3163 46.3264L40.1872 8.17858C37.8929 4.39452 32.4217 4.3265 30.0132 8.03893C28.7809 9.93841 28.719 12.3757 29.8593 14.3318L47.6795 44.9037C48.0512 45.5415 47.8807 46.3571 47.2847 46.7925C46.5948 47.2966 45.6203 47.0929 45.19 46.3546L31.257 22.4468C28.932 18.4573 23.1606 18.4794 20.8662 22.4865Z" fill="white"/>
<path d="M43.7917 47.1699L45.1901 46.3548L43.7917 47.1699ZM43.7917 47.1699L35.34 32.6703L43.8308 44.0224C43.2539 44.9581 43.2074 46.1674 43.7917 47.1699ZM27.3691 24.7126L28.8772 27.3005C26.9866 27.4251 25.1457 28.4155 24.0442 30.2706L11.3357 51.6732C11.2118 51.8818 11.006 52.029 10.7684 52.0787C10.5311 52.1283 10.3793 52.0952 10.2708 52.0505C10.142 51.9974 10.0031 51.895 9.89055 51.7402C9.778 51.5853 9.72347 51.4216 9.71272 51.2827C9.70366 51.1657 9.71905 51.0111 9.83953 50.8007L24.7714 24.7225C25.345 23.7207 26.7878 23.7152 27.3691 24.7126ZM25.9804 50.9579L34.3806 36.7437L41.3021 48.6205C41.907 49.6584 42.7728 50.44 43.764 50.9372H26.4979C26.3232 50.9372 26.1506 50.9442 25.9804 50.9579ZM49.1054 50.9372C49.3919 50.7924 49.6708 50.6223 49.9393 50.4261C52.3972 48.6304 53.1001 45.2674 51.5672 42.6376L33.747 12.0657C33.4649 11.5817 33.4771 10.9679 33.7884 10.4881C34.4025 9.54142 35.7771 9.58448 36.3392 10.5116L59.4684 48.6595C60.0745 49.6591 59.3547 50.9372 58.1857 50.9372H49.1054ZM18.7239 63.2368L20.7954 59.7316C21.7915 61.963 24.016 63.429 26.4979 63.429H53.4976C53.8308 63.429 54.1437 63.5893 54.3382 63.8598C54.831 64.5448 54.3414 65.5 53.4976 65.5H20.0153C18.8538 65.5 18.133 64.2368 18.7239 63.2368Z" stroke="white" stroke-width="9" stroke-linejoin="round"/>
</g>
</g>
<defs>
<filter id="filter0_d_1036_2" x="1.21094" y="3.29688" width="66.9844" height="72.7031" filterUnits="userSpaceOnUse" color-interpolation-filters="sRGB">
<feFlood flood-opacity="0" result="BackgroundImageFix"/>
<feColorMatrix in="SourceAlpha" type="matrix" values="0 0 0 0 0 0 0 0 0 0 0 0 0 0 0 0 0 0 127 0" result="hardAlpha"/>
<feOffset dy="2"/>
<feGaussianBlur stdDeviation="2"/>
<feComposite in2="hardAlpha" operator="out"/>
<feColorMatrix type="matrix" values="0 0 0 0 0 0 0 0 0 0 0 0 0 0 0 0 0 0 0.5 0"/>
<feBlend mode="normal" in2="BackgroundImageFix" result="effect1_dropShadow_1036_2"/>
<feBlend mode="normal" in="SourceGraphic" in2="effect1_dropShadow_1036_2" result="shape"/>
</filter>
<clipPath id="clip0_1036_2">
<rect width="70" height="70" fill="white"/>
</clipPath>
</defs>
</svg>
