<svg width="20" height="20" viewBox="0 0 22 23" fill="none" xmlns="http://www.w3.org/2000/svg">
<g id="Heart.svg">
<path id="Vector" fill-rule="evenodd" clip-rule="evenodd" d="M5.15558 4.55568C3.63484 5.25081 2.52075 6.90421 2.52075 8.87584C2.52075 10.8901 3.34504 12.4427 4.52668 13.7733C5.50058 14.8699 6.67952 15.7788 7.82929 16.6652C8.10237 16.8758 8.37381 17.085 8.64046 17.2952C9.12266 17.6754 9.55278 18.009 9.96739 18.2512C10.3822 18.4937 10.7161 18.6043 10.9999 18.6043C11.2837 18.6043 11.6177 18.4937 12.0325 18.2512C12.4471 18.009 12.8772 17.6754 13.3594 17.2952C13.6261 17.085 13.8975 16.8758 14.1706 16.6652C15.3204 15.7788 16.4993 14.8699 17.4731 13.7733C18.6548 12.4427 19.4791 10.8901 19.4791 8.87584C19.4791 6.90421 18.365 5.25081 16.8442 4.55568C15.3668 3.88035 13.3817 4.05919 11.4953 6.01917C11.3657 6.15382 11.1868 6.22992 10.9999 6.22992C10.813 6.22992 10.6342 6.15382 10.5046 6.01917C8.61811 4.05919 6.63298 3.88035 5.15558 4.55568ZM10.9999 4.58741C8.88054 2.69122 6.5073 2.42596 4.58395 3.30513C2.55257 4.23368 1.14575 6.38977 1.14575 8.87584C1.14575 11.3192 2.16371 13.1833 3.49858 14.6863C4.56755 15.89 5.87595 16.8975 7.03151 17.7872C7.29346 17.9889 7.54755 18.1845 7.78922 18.3751C8.25876 18.7452 8.76283 19.1399 9.27365 19.4384C9.78433 19.7368 10.3671 19.9793 10.9999 19.9793C11.6328 19.9793 12.2155 19.7368 12.7262 19.4384C13.237 19.1399 13.741 18.7452 14.2106 18.3751C14.4523 18.1845 14.7064 17.9889 14.9684 17.7872C16.1239 16.8975 17.4323 15.89 18.5013 14.6863C19.8361 13.1833 20.8541 11.3192 20.8541 8.87584C20.8541 6.38977 19.4473 4.23368 17.4159 3.30513C15.4925 2.42596 13.1193 2.69122 10.9999 4.58741Z" fill="#040404"/>
</g>
</svg>
