<svg width="11" height="12" viewBox="0 0 11 12" fill="none" xmlns="http://www.w3.org/2000/svg">
<g clip-path="url(#clip0_49_1813)">
<path fill-rule="evenodd" clip-rule="evenodd" d="M5.49995 0.5C6.64901 0.5 7.58039 1.43134 7.58039 2.5804C7.58039 3.72934 6.64901 4.66071 5.49995 4.66071C4.351 4.66071 3.41962 3.72934 3.41962 2.5804C3.41962 1.43134 4.351 0.5 5.49995 0.5Z" fill="#040404"/>
<path fill-rule="evenodd" clip-rule="evenodd" d="M2.08045 6.79297C3.22938 6.79297 4.16077 7.72442 4.16077 8.87336C4.16077 10.0223 3.22938 10.9537 2.08045 10.9537C0.931505 10.9537 0 10.0223 0 8.87336C0 7.72442 0.931505 6.79297 2.08045 6.79297Z" fill="#040404"/>
<path fill-rule="evenodd" clip-rule="evenodd" d="M8.91966 6.79297C10.0687 6.79297 11 7.72442 11 8.87336C11 10.0223 10.0687 10.9537 8.91966 10.9537C7.77073 10.9537 6.83936 10.0223 6.83936 8.87336C6.83936 7.72442 7.77073 6.79297 8.91966 6.79297Z" fill="#040404"/>
</g>
<defs>
<clipPath id="clip0_49_1813">
<rect width="11" height="11" fill="white" transform="translate(0 0.5)"/>
</clipPath>
</defs>
</svg>
