<svg width="100%" height="100%" viewBox="0 0 1013 502" fill="none" xmlns="http://www.w3.org/2000/svg">
<rect x="74" y="217" width="86" height="174" fill="white"/>
<rect x="74" y="316" width="189" height="75" fill="white"/>
<path d="M246.22 281V218H276.1C281.5 218 286.3 218.81 290.5 220.43C294.7 222.05 298.24 224.3 301.12 227.18C304 230.06 306.16 233.42 307.6 237.26C309.1 241.04 309.85 245.12 309.85 249.5C309.85 253.94 309.1 258.08 307.6 261.92C306.16 265.7 304 269.03 301.12 271.91C298.24 274.73 294.7 276.95 290.5 278.57C286.3 280.19 281.5 281 276.1 281H246.22ZM255.94 272.63L255.67 271.64H275.65C279.79 271.64 283.36 271.1 286.36 270.02C289.36 268.88 291.82 267.32 293.74 265.34C295.72 263.36 297.19 261.02 298.15 258.32C299.11 255.62 299.59 252.68 299.59 249.5C299.59 246.38 299.11 243.5 298.15 240.86C297.19 238.16 295.72 235.82 293.74 233.84C291.82 231.8 289.36 230.21 286.36 229.07C283.36 227.93 279.79 227.36 275.65 227.36H255.4L255.94 226.55V272.63ZM343.755 281.9C339.555 281.9 335.685 281.45 332.145 280.55C328.605 279.65 325.365 278.3 322.425 276.5C319.485 274.7 316.815 272.42 314.415 269.66L320.715 261.65C324.315 265.73 327.945 268.67 331.605 270.47C335.325 272.27 339.495 273.17 344.115 273.17C346.995 273.17 349.725 272.81 352.305 272.09C354.885 271.31 356.985 270.2 358.605 268.76C360.285 267.32 361.125 265.52 361.125 263.36C361.125 261.98 360.705 260.81 359.865 259.85C359.025 258.89 357.915 258.08 356.535 257.42C355.155 256.76 353.595 256.22 351.855 255.8C350.175 255.38 348.465 255.05 346.725 254.81C345.045 254.51 343.485 254.24 342.045 254C338.205 253.46 334.785 252.71 331.785 251.75C328.785 250.73 326.205 249.5 324.045 248.06C321.945 246.56 320.325 244.76 319.185 242.66C318.105 240.56 317.565 238.16 317.565 235.46C317.565 232.64 318.225 230.09 319.545 227.81C320.865 225.53 322.725 223.61 325.125 222.05C327.525 220.43 330.315 219.2 333.495 218.36C336.675 217.52 340.125 217.1 343.845 217.1C347.745 217.1 351.315 217.52 354.555 218.36C357.855 219.2 360.765 220.46 363.285 222.14C365.865 223.76 367.995 225.77 369.675 228.17L363.105 235.19C361.545 233.15 359.745 231.44 357.705 230.06C355.725 228.68 353.535 227.63 351.135 226.91C348.735 226.19 346.215 225.83 343.575 225.83C340.575 225.83 337.905 226.19 335.565 226.91C333.225 227.63 331.365 228.65 329.985 229.97C328.605 231.23 327.915 232.76 327.915 234.56C327.915 236.12 328.305 237.47 329.085 238.61C329.925 239.69 331.095 240.62 332.595 241.4C334.095 242.12 335.925 242.75 338.085 243.29C340.245 243.83 342.705 244.28 345.465 244.64C348.945 245.18 352.245 245.84 355.365 246.62C358.545 247.4 361.335 248.42 363.735 249.68C366.135 250.94 368.025 252.56 369.405 254.54C370.785 256.46 371.475 258.86 371.475 261.74C371.475 265.82 370.335 269.39 368.055 272.45C365.775 275.45 362.565 277.79 358.425 279.47C354.285 281.09 349.395 281.9 343.755 281.9ZM410.864 281.9C406.004 281.9 401.474 281.15 397.274 279.65C393.074 278.09 389.384 275.87 386.204 272.99C383.084 270.11 380.654 266.69 378.914 262.73C377.174 258.71 376.304 254.3 376.304 249.5C376.304 244.94 377.204 240.71 379.004 236.81C380.864 232.91 383.384 229.52 386.564 226.64C389.804 223.7 393.524 221.45 397.724 219.89C401.924 218.27 406.394 217.46 411.134 217.46C414.914 217.46 418.544 217.97 422.024 218.99C425.504 220.01 428.654 221.33 431.474 222.95C434.354 224.51 436.664 226.22 438.404 228.08L432.374 235.91C430.334 234.11 428.174 232.55 425.894 231.23C423.674 229.91 421.274 228.89 418.694 228.17C416.114 227.45 413.354 227.09 410.414 227.09C407.294 227.09 404.294 227.63 401.414 228.71C398.534 229.73 395.924 231.23 393.584 233.21C391.304 235.13 389.504 237.5 388.184 240.32C386.864 243.08 386.204 246.14 386.204 249.5C386.204 253.16 386.864 256.43 388.184 259.31C389.564 262.13 391.454 264.5 393.854 266.42C396.254 268.34 398.984 269.81 402.044 270.83C405.164 271.85 408.434 272.36 411.854 272.36C414.974 272.36 417.824 271.97 420.404 271.19C422.984 270.35 425.294 269.3 427.334 268.04C429.434 266.72 431.324 265.4 433.004 264.08L437.684 272.09C436.124 273.53 433.964 275.03 431.204 276.59C428.444 278.09 425.324 279.35 421.844 280.37C418.364 281.39 414.704 281.9 410.864 281.9ZM470.218 250.4V218H476.428L489.658 240.32H484.618L497.848 218H504.598V250.4H497.128V223.85H501.178L490.018 243.38H484.078L472.378 223.13H477.508V250.4H470.218ZM449.608 250.4V220.16H456.448V250.4H449.608ZM440.878 224.66V218H465.628V224.66H440.878ZM534.963 281L531.993 273.62L553.053 254C554.613 252.44 556.203 250.88 557.823 249.32C559.503 247.7 561.003 246.11 562.323 244.55C563.703 242.93 564.813 241.34 565.653 239.78C566.493 238.16 566.913 236.63 566.913 235.19C566.913 233.27 566.493 231.65 565.653 230.33C564.813 228.95 563.553 227.9 561.873 227.18C560.253 226.46 558.243 226.1 555.843 226.1C553.683 226.1 551.523 226.52 549.363 227.36C547.263 228.2 545.253 229.49 543.333 231.23C541.473 232.97 539.823 235.19 538.383 237.89L531.183 232.94C532.863 229.76 534.933 227 537.393 224.66C539.853 222.26 542.733 220.4 546.033 219.08C549.333 217.76 552.993 217.1 557.013 217.1C561.093 217.1 564.603 217.85 567.543 219.35C570.543 220.79 572.853 222.8 574.473 225.38C576.093 227.9 576.903 230.81 576.903 234.11C576.903 236.09 576.543 238.04 575.823 239.96C575.163 241.82 574.233 243.65 573.033 245.45C571.833 247.25 570.453 248.99 568.893 250.67C567.333 252.35 565.683 254.03 563.943 255.71C562.263 257.39 560.583 259.04 558.903 260.66L543.603 275.24L542.073 271.64H578.883V281H534.963ZM607.047 281.9C601.287 281.9 596.397 280.52 592.377 277.76C588.357 275 585.297 271.19 583.197 266.33C581.097 261.47 580.047 255.86 580.047 249.5C580.047 243.14 581.097 237.53 583.197 232.67C585.297 227.81 588.357 224 592.377 221.24C596.397 218.48 601.287 217.1 607.047 217.1C612.687 217.1 617.487 218.48 621.447 221.24C625.407 224 628.407 227.81 630.447 232.67C632.487 237.53 633.507 243.14 633.507 249.5C633.507 255.86 632.487 261.47 630.447 266.33C628.407 271.19 625.407 275 621.447 277.76C617.487 280.52 612.687 281.9 607.047 281.9ZM607.047 273.08C612.447 273.08 616.617 271.04 619.557 266.96C622.557 262.82 624.057 257 624.057 249.5C624.057 242 622.557 236.21 619.557 232.13C616.617 227.99 612.447 225.92 607.047 225.92C601.527 225.92 597.207 227.99 594.087 232.13C590.967 236.21 589.407 242 589.407 249.5C589.407 257 590.967 262.82 594.087 266.96C597.207 271.04 601.527 273.08 607.047 273.08ZM652.287 276.59V225.47L655.797 226.28L641.217 234.2L637.977 226.1L654.447 217.1H662.097V276.59H652.287ZM639.687 281V271.64H672.987V281H639.687ZM694.334 281L693.974 280.1L717.014 240.32L716.744 247.16C715.364 248.84 713.924 250.43 712.424 251.93C710.924 253.37 709.334 254.63 707.654 255.71C705.974 256.79 704.174 257.63 702.254 258.23C700.394 258.83 698.384 259.13 696.224 259.13C692.444 259.13 688.994 258.23 685.874 256.43C682.754 254.57 680.294 252.14 678.494 249.14C676.694 246.14 675.794 242.9 675.794 239.42C675.794 235.1 676.874 231.26 679.034 227.9C681.254 224.48 684.224 221.81 687.944 219.89C691.664 217.91 695.774 216.92 700.274 216.92C703.514 216.92 706.544 217.46 709.364 218.54C712.244 219.62 714.764 221.12 716.924 223.04C719.144 224.96 720.884 227.21 722.144 229.79C723.404 232.31 724.034 235.04 724.034 237.98C724.034 239.78 723.734 241.73 723.134 243.83C722.534 245.87 721.694 248.06 720.614 250.4C719.594 252.74 718.394 255.17 717.014 257.69C715.694 260.15 714.314 262.7 712.874 265.34L704.054 281H694.334ZM699.194 250.04C702.254 250.04 704.924 249.5 707.204 248.42C709.484 247.34 711.224 245.9 712.424 244.1C713.684 242.3 714.314 240.38 714.314 238.34C714.314 236.12 713.684 234.08 712.424 232.22C711.224 230.3 709.514 228.8 707.294 227.72C705.074 226.58 702.434 226.01 699.374 226.01C696.854 226.01 694.514 226.52 692.354 227.54C690.254 228.5 688.544 229.91 687.224 231.77C685.964 233.57 685.334 235.73 685.334 238.25C685.334 240.23 685.934 242.12 687.134 243.92C688.334 245.72 689.954 247.19 691.994 248.33C694.094 249.47 696.494 250.04 699.194 250.04ZM751.18 259.49V250.67H781.6V259.49H751.18Z" fill="white"/>
<path d="M262.1 195.6C258.26 195.6 255 194.68 252.32 192.84C249.64 191 247.6 188.46 246.2 185.22C244.8 181.98 244.1 178.24 244.1 174C244.1 169.76 244.8 166.02 246.2 162.78C247.6 159.54 249.64 157 252.32 155.16C255 153.32 258.26 152.4 262.1 152.4C265.86 152.4 269.06 153.32 271.7 155.16C274.34 157 276.34 159.54 277.7 162.78C279.06 166.02 279.74 169.76 279.74 174C279.74 178.24 279.06 181.98 277.7 185.22C276.34 188.46 274.34 191 271.7 192.84C269.06 194.68 265.86 195.6 262.1 195.6ZM262.1 189.72C265.7 189.72 268.48 188.36 270.44 185.64C272.44 182.88 273.44 179 273.44 174C273.44 169 272.44 165.14 270.44 162.42C268.48 159.66 265.7 158.28 262.1 158.28C258.42 158.28 255.54 159.66 253.46 162.42C251.38 165.14 250.34 169 250.34 174C250.34 179 251.38 182.88 253.46 185.64C255.54 188.36 258.42 189.72 262.1 189.72ZM298.32 195.6C294.48 195.6 291.22 194.68 288.54 192.84C285.86 191 283.82 188.46 282.42 185.22C281.02 181.98 280.32 178.24 280.32 174C280.32 169.76 281.02 166.02 282.42 162.78C283.82 159.54 285.86 157 288.54 155.16C291.22 153.32 294.48 152.4 298.32 152.4C302.08 152.4 305.28 153.32 307.92 155.16C310.56 157 312.56 159.54 313.92 162.78C315.28 166.02 315.96 169.76 315.96 174C315.96 178.24 315.28 181.98 313.92 185.22C312.56 188.46 310.56 191 307.92 192.84C305.28 194.68 302.08 195.6 298.32 195.6ZM298.32 189.72C301.92 189.72 304.7 188.36 306.66 185.64C308.66 182.88 309.66 179 309.66 174C309.66 169 308.66 165.14 306.66 162.42C304.7 159.66 301.92 158.28 298.32 158.28C294.64 158.28 291.76 159.66 289.68 162.42C287.6 165.14 286.56 169 286.56 174C286.56 179 287.6 182.88 289.68 185.64C291.76 188.36 294.64 189.72 298.32 189.72ZM328.481 192.06V157.98L330.821 158.52L321.101 163.8L318.941 158.4L329.921 152.4H335.021V192.06H328.481ZM320.081 195V188.76H342.281V195H320.081Z" fill="white"/>
<path d="M891.57 272.83C887.39 272.83 883.833 272.097 880.9 270.63C877.967 269.163 875.033 267.183 872.1 264.69L849.11 244.78C847.35 243.167 845.297 241.81 842.95 240.71C840.603 239.537 838.183 238.95 835.69 238.95C833.637 238.95 831.657 239.427 829.75 240.38C827.917 241.26 826.413 242.617 825.24 244.45C824.067 246.283 823.48 248.593 823.48 251.38C823.48 254.093 824.03 256.403 825.13 258.31C826.303 260.143 827.807 261.537 829.64 262.49C831.547 263.37 833.6 263.81 835.8 263.81C838.147 263.81 840.347 263.37 842.4 262.49C844.453 261.537 846.543 260.143 848.67 258.31L871.22 238.95C873.493 236.97 875.62 235.32 877.6 234C879.58 232.68 881.633 231.69 883.76 231.03C885.96 230.297 888.49 229.93 891.35 229.93C895.017 229.93 898.427 230.737 901.58 232.35C904.807 233.963 907.373 236.383 909.28 239.61C911.187 242.763 912.14 246.687 912.14 251.38C912.14 256.073 911.187 260.033 909.28 263.26C907.447 266.413 904.953 268.797 901.8 270.41C898.72 272.023 895.31 272.83 891.57 272.83ZM834.81 272.83C831.143 272.83 827.733 272.023 824.58 270.41C821.5 268.797 819.007 266.413 817.1 263.26C815.267 260.033 814.35 256.073 814.35 251.38C814.35 246.687 815.303 242.763 817.21 239.61C819.117 236.383 821.647 233.963 824.8 232.35C827.953 230.737 831.363 229.93 835.03 229.93C837.963 229.93 840.567 230.297 842.84 231.03C845.187 231.763 847.387 232.827 849.44 234.22C851.567 235.54 853.73 237.19 855.93 239.17L878.59 258.53C880.203 259.923 882.147 261.17 884.42 262.27C886.693 263.297 888.747 263.81 890.58 263.81C892.853 263.81 894.907 263.37 896.74 262.49C898.647 261.537 900.15 260.143 901.25 258.31C902.423 256.403 903.01 254.093 903.01 251.38C903.01 248.593 902.423 246.283 901.25 244.45C900.077 242.617 898.537 241.26 896.63 240.38C894.723 239.427 892.707 238.95 890.58 238.95C888.6 238.95 886.327 239.463 883.76 240.49C881.267 241.443 879.067 242.727 877.16 244.34L854.28 264.25C852.227 266.01 850.21 267.55 848.23 268.87C846.323 270.19 844.307 271.18 842.18 271.84C840.053 272.5 837.597 272.83 834.81 272.83Z" fill="white"/>
</svg>
