<svg width="100%" height="100%" viewBox="0 0 548 534" fill="none" xmlns="http://www.w3.org/2000/svg">
<g filter="url(#filter0_d_994_6)">
<path d="M23.6809 442.894L92.1933 443.484C98.6704 443.54 104.73 440.292 108.269 434.867L227.629 251.938C230.429 247.647 235.216 245.07 240.34 245.095C252.274 245.155 259.419 258.391 252.919 268.401L103.546 498.418C95.3398 511.054 104.403 527.758 119.47 527.766L497.56 527.979C512.932 527.988 521.951 510.689 513.142 498.092L472.219 439.567C468.664 434.483 462.851 431.455 456.648 431.455H214.538C207.494 431.455 201.118 427.284 198.296 420.83C193.175 409.118 201.756 396 214.538 396H524.932C540.12 396 549.169 379.062 540.725 366.438L303.185 11.2571C295.725 0.102739 279.366 -0.0130386 271.749 11.0346L254.496 36.0589L228.131 71.8215C223.46 78.1569 223.179 86.7162 227.425 93.344L386.737 342.067C390.343 347.696 390.036 354.98 385.971 360.286C379.275 369.025 365.935 368.463 359.998 359.192L218.812 138.725C211.371 127.106 194.416 127.042 186.888 138.606L7.92124 413.529C-0.266195 426.106 8.67406 442.764 23.6809 442.894Z" fill="white"/>
<path d="M258.118 38.7291C258.136 38.7038 258.155 38.6783 258.173 38.6526C258.182 38.6395 258.191 38.6264 258.2 38.6132L275.454 13.589C281.267 5.15785 293.751 5.24622 299.444 13.7588L536.985 368.939C543.428 378.574 536.523 391.5 524.932 391.5H214.538C198.511 391.5 187.752 407.948 194.173 422.633C197.712 430.725 205.706 435.955 214.538 435.955H456.648C461.382 435.955 465.818 438.266 468.531 442.145L509.454 500.67C516.177 510.284 509.294 523.486 497.563 523.479L119.472 523.266C107.974 523.26 101.057 510.512 107.32 500.869L256.693 270.851C265.132 257.857 255.856 240.672 240.362 240.595C233.71 240.562 227.496 243.908 223.86 249.479L104.501 432.408C101.799 436.548 97.1751 439.027 92.2321 438.984L23.7196 438.394C12.2671 438.295 5.44425 425.582 11.6926 415.984L190.66 141.061C196.404 132.236 209.344 132.285 215.022 141.152L356.209 361.619C363.828 373.517 380.95 374.238 389.543 363.023C394.761 356.213 395.154 346.864 390.527 339.64L231.214 90.9169C227.974 85.8588 228.188 79.3267 231.753 74.4918L258.118 38.7291Z" stroke="white" stroke-width="9" stroke-linejoin="round"/>
</g>
<defs>
<filter id="filter0_d_994_6" x="0.813965" y="0.81958" width="547.15" height="533.16" filterUnits="userSpaceOnUse" color-interpolation-filters="sRGB">
<feFlood flood-opacity="0" result="BackgroundImageFix"/>
<feColorMatrix in="SourceAlpha" type="matrix" values="0 0 0 0 0 0 0 0 0 0 0 0 0 0 0 0 0 0 127 0" result="hardAlpha"/>
<feOffset dy="2"/>
<feGaussianBlur stdDeviation="2"/>
<feComposite in2="hardAlpha" operator="out"/>
<feColorMatrix type="matrix" values="0 0 0 0 0 0 0 0 0 0 0 0 0 0 0 0 0 0 0.5 0"/>
<feBlend mode="normal" in2="BackgroundImageFix" result="effect1_dropShadow_994_6"/>
<feBlend mode="normal" in="SourceGraphic" in2="effect1_dropShadow_994_6" result="shape"/>
</filter>
</defs>
</svg>
