<svg width="100%" height="100%" viewBox="0 0 336 324" fill="none" xmlns="http://www.w3.org/2000/svg">
<g filter="url(#filter0_d_958_43)">
<path d="M23.7043 266.107L48.1118 266.317C54.585 266.372 60.6413 263.129 64.1818 257.709L136.615 146.835C137.325 145.747 138.542 145.098 139.84 145.112C142.838 145.146 144.619 148.474 142.985 150.987L53.5748 288.501C45.3592 301.136 54.4215 317.849 69.4931 317.857L285.976 317.979C301.353 317.988 310.37 300.679 301.551 288.083L286.864 267.103C283.308 262.025 277.498 259 271.299 259H123.652C121.581 259 119.902 257.321 119.902 255.25C119.902 253.179 121.581 251.5 123.652 251.5H312.572C327.764 251.5 336.812 234.553 328.359 221.929L187.268 11.22C179.807 0.0774555 163.462 -0.0382862 155.844 10.9975L151.446 17.3693L138.339 35.1255C133.66 41.4645 133.379 50.0336 137.632 56.6657L234.407 207.568C235.357 209.049 235.147 210.992 233.902 212.236C232.212 213.925 229.395 213.62 228.105 211.609L142.913 78.7418C135.471 67.134 118.53 67.0707 111.001 78.6226L7.95025 236.733C-0.246861 249.31 8.69262 265.978 23.7043 266.107Z" fill="#191B1D"/>
<path d="M155.066 20.0417C155.094 20.0035 155.122 19.9648 155.149 19.9258L159.547 13.5539C165.361 5.1319 177.835 5.22023 183.529 13.7238L324.62 224.432C331.071 234.066 324.166 247 312.572 247H123.652C119.096 247 115.402 250.694 115.402 255.25C115.402 259.806 119.096 263.5 123.652 263.5H271.299C276.03 263.5 280.464 265.808 283.177 269.684L297.865 290.663C304.595 300.277 297.713 313.486 285.978 313.479L69.4957 313.357C57.9936 313.351 51.0777 300.596 57.3475 290.953L146.758 153.44C150.326 147.952 146.436 140.687 139.891 140.613C137.055 140.581 134.399 141.999 132.847 144.374L60.4144 255.248C57.7125 259.384 53.0906 261.859 48.1505 261.817L23.743 261.607C12.2867 261.508 5.46451 248.788 11.7202 239.19L114.771 81.0798C120.517 72.2638 133.445 72.3121 139.125 81.1707L224.317 214.038C227.157 218.466 233.362 219.138 237.083 215.419C239.824 212.68 240.287 208.401 238.195 205.139L141.42 54.2365C138.174 49.1751 138.389 42.6356 141.96 37.7979L155.066 20.0417Z" stroke="#191B1D" stroke-width="9" stroke-linejoin="round"/>
</g>
<defs>
<filter id="filter0_d_958_43" x="0.837158" y="0.791504" width="334.767" height="323.188" filterUnits="userSpaceOnUse" color-interpolation-filters="sRGB">
<feFlood flood-opacity="0" result="BackgroundImageFix"/>
<feColorMatrix in="SourceAlpha" type="matrix" values="0 0 0 0 0 0 0 0 0 0 0 0 0 0 0 0 0 0 127 0" result="hardAlpha"/>
<feOffset dy="2"/>
<feGaussianBlur stdDeviation="2"/>
<feComposite in2="hardAlpha" operator="out"/>
<feColorMatrix type="matrix" values="0 0 0 0 0 0 0 0 0 0 0 0 0 0 0 0 0 0 0.5 0"/>
<feBlend mode="normal" in2="BackgroundImageFix" result="effect1_dropShadow_958_43"/>
<feBlend mode="normal" in="SourceGraphic" in2="effect1_dropShadow_958_43" result="shape"/>
</filter>
</defs>
</svg>
