<svg width="100%" height="100%" viewBox="0 0 182 168" fill="none" xmlns="http://www.w3.org/2000/svg">
<path d="M82.6806 12.9349C82.6902 12.9222 82.6997 12.9093 82.7089 12.8963L89.2386 3.69891C90.646 1.71649 93.5962 1.73759 94.9751 3.73995L179.868 127.015C181.467 129.337 179.805 132.5 176.986 132.5H162.5H138.5H66.1364C64.6176 132.5 63.3864 133.731 63.3864 135.25C63.3864 136.769 64.6176 138 66.1364 138H147.192C148.322 138 149.382 138.545 150.039 139.464L164.927 160.278C166.593 162.608 164.908 165.844 162.043 165.814L31.7571 164.454C28.9761 164.425 27.3382 161.32 28.8841 159.009L81.5209 80.2918C82.7411 78.4669 81.4804 76.0119 79.2863 75.9403C78.3226 75.9089 77.4106 76.376 76.8729 77.1763L37.0672 136.422C36.4113 137.399 35.3089 137.98 34.1328 137.97L5.28945 137.729C2.50338 137.706 0.860146 134.595 2.41145 132.28L66.5585 36.5821C67.9512 34.5044 71.0107 34.516 72.3877 36.6041L122.018 111.868C122.889 113.189 124.694 113.503 125.96 112.554C127.123 111.682 127.406 110.056 126.606 108.843L73.7016 28.6299C72.8839 27.3903 72.9376 25.7695 73.8356 24.5867L82.6806 12.9349Z" stroke="black" stroke-width="3" stroke-linejoin="round"/>
</svg>
